<?xml version="1.0" standalone="no"?>
<!DOCTYPE svg PUBLIC "-//W3C//DTD SVG 20010904//EN"
 "http://www.w3.org/TR/2001/REC-SVG-20010904/DTD/svg10.dtd">
<svg version="1.0" xmlns="http://www.w3.org/2000/svg"
 width="640.000000pt" height="640.000000pt" viewBox="0 0 640.000000 640.000000"
 preserveAspectRatio="xMidYMid meet">
<metadata>
Created by potrace 1.14, written by Peter Selinger 2001-2017
</metadata>
<g transform="translate(0.000000,640.000000) scale(0.100000,-0.100000)"
fill="#000000" stroke="none">
<path d="M0 3200 l0 -3200 2985 0 c2045 0 2985 3 2985 10 0 6 -7 27 -15 47 -8
19 -15 51 -15 69 0 19 -4 34 -10 34 -18 0 -11 84 10 110 11 14 20 34 20 45 0
24 28 67 39 61 4 -3 21 9 37 27 16 18 51 50 77 72 46 40 47 40 47 103 0 48 3
62 15 62 11 0 15 11 15 38 -1 34 -6 41 -58 77 -31 22 -81 52 -110 67 -30 15
-62 34 -71 42 -10 9 -21 16 -25 16 -4 0 -19 11 -34 25 -15 14 -32 25 -38 25
-7 0 -14 7 -18 15 -3 8 -12 15 -20 15 -7 0 -16 7 -20 15 -3 8 -11 15 -17 15
-6 0 -21 10 -33 23 -11 12 -42 37 -68 55 -25 17 -48 35 -50 39 -5 13 -106 93
-116 93 -6 0 -12 7 -16 15 -3 8 -17 20 -31 27 -14 6 -25 17 -25 25 0 7 -4 13
-10 13 -5 0 -10 7 -10 15 0 9 -7 18 -15 22 -9 3 -22 20 -30 37 -8 17 -19 38
-24 46 -5 8 -20 38 -33 65 -12 28 -26 52 -30 53 -5 2 -8 10 -8 19 0 8 -16 46
-35 84 -19 39 -35 75 -35 81 0 5 -6 24 -14 41 -8 18 -25 64 -38 102 -12 39
-25 72 -28 75 -3 3 -14 22 -25 43 -11 20 -23 37 -27 37 -5 0 -8 7 -8 15 0 7
-6 18 -13 22 -7 4 -28 34 -46 66 -18 31 -37 57 -42 57 -5 0 -9 7 -9 15 0 8 -6
29 -14 47 -8 18 -21 49 -29 68 -28 65 -46 302 -25 327 10 13 10 17 1 20 -10 4
-13 37 -13 120 0 116 0 116 30 144 16 16 34 29 40 29 5 0 10 6 10 14 0 14 10
23 84 76 20 14 36 30 36 36 0 6 11 21 25 34 14 13 23 25 20 28 -2 3 1 14 7 26
6 11 17 52 24 90 8 38 20 76 28 85 10 11 13 32 9 71 -3 43 -2 52 7 40 9 -11
13 -12 17 -2 2 6 14 12 25 12 29 0 180 50 198 66 8 7 50 33 93 58 57 34 95 49
140 55 34 5 75 14 90 20 16 6 39 11 53 11 13 0 24 4 24 10 0 5 12 13 27 16 43
11 80 58 99 124 9 33 21 60 25 60 5 0 9 6 9 13 0 6 18 21 40 31 22 11 40 22
40 26 0 4 18 13 40 20 22 7 40 17 40 22 0 4 6 8 14 8 8 0 21 6 28 13 24 24 98
47 148 47 l50 0 0 1180 0 1180 -3200 0 -3200 0 0 -3200z"/>
</g>
</svg>
